<svg width="24.000000" height="24.000000" viewBox="0 0 24 24" fill="none" xmlns="http://www.w3.org/2000/svg" xmlns:xlink="http://www.w3.org/1999/xlink">
	<desc>
			Created with Pixso.
	</desc>
	<defs/>
	<path id="Vector" d="M12.87 15.06L10.33 12.56L10.35 12.52C12.1 10.58 13.33 8.35 14.06 6L17 6L17 4L10 4L10 2L8 2L8 4L1 4L1 5.99L12.16 5.99C11.5 7.91 10.43 9.75 9 11.35C8.06 10.31 7.29 9.18 6.68 8L4.68 8C5.41 9.62 6.41 11.16 7.66 12.56L2.58 17.58L4 19L9 14L12.1 17.1L12.87 15.06ZM18.5 10L16.5 10L12 22L14 22L15.12 19L19.87 19L21 22L23 22L18.5 10ZM15.87 17L17.5 12.66L19.12 17L15.87 17Z" fill="#FFFFFF" fill-opacity="0.700000" fill-rule="nonzero"/>
</svg>
