<svg width="24.000000" height="24.000000" viewBox="0 0 24 24" fill="none" xmlns="http://www.w3.org/2000/svg" xmlns:xlink="http://www.w3.org/1999/xlink">
	<desc>
			Created with Pixso.
	</desc>
	<defs/>
	<path id="Vector" d="M13.16 4L18 8.83L18 20L6 20L6 4L13.16 4ZM14 2L6 2C4.89 2 4 2.89 4 4L4 20C4 21.1 4.89 22 6 22L18 22C19.1 22 20 21.1 20 20L20 8L14 2ZM12 14C13.1 14 14 13.1 14 12C14 10.89 13.1 10 12 10C10.89 10 10 10.89 10 12C10 13.1 10.89 14 12 14ZM16 17.43C16 16.62 15.52 15.89 14.77 15.58C13.93 15.21 12.99 15 12 15C11 15 10.06 15.21 9.22 15.58C8.47 15.89 8 16.62 8 17.43L8 18L16 18L16 17.43Z" fill="#FFFFFF" fill-opacity="0.700000" fill-rule="nonzero"/>
</svg>
