<svg width="22.000000" height="14.000000" viewBox="0 0 22 14" fill="none" xmlns="http://www.w3.org/2000/svg" xmlns:xlink="http://www.w3.org/1999/xlink">
	<desc>
			Created with Pixso.
	</desc>
	<defs/>
	<path id="Vector" d="M15 6C16.66 6 17.99 4.66 17.99 3C17.99 1.33 16.66 0 15 0C13.33 0 12 1.33 12 3C12 4.66 13.33 6 15 6ZM7 6C8.66 6 9.99 4.66 9.99 3C9.99 1.33 8.66 0 7 0C5.33 0 4 1.33 4 3C4 4.66 5.33 6 7 6ZM7 8C4.66 8 0 9.16 0 11.5L0 14L14 14L14 11.5C14 9.16 9.33 8 7 8ZM15 8C14.71 8 14.37 8.02 14.02 8.04C15.18 8.89 16 10.02 16 11.5L16 14L22 14L22 11.5C22 9.16 17.33 8 15 8Z" fill="#FFFFFF" fill-opacity="1.000000" fill-rule="nonzero"/>
</svg>