<svg width="24.000000" height="24.000000" viewBox="0 0 24 24" fill="none" xmlns="http://www.w3.org/2000/svg" xmlns:xlink="http://www.w3.org/1999/xlink">
	<desc>
			Created with Pixso.
	</desc>
	<defs/>
	<path id="Vector" d="M16 11C17.66 11 18.99 9.66 18.99 8C18.99 6.33 17.66 5 16 5C14.33 5 13 6.33 13 8C13 9.66 14.33 11 16 11ZM8 11C9.66 11 10.99 9.66 10.99 8C10.99 6.33 9.66 5 8 5C6.33 5 5 6.33 5 8C5 9.66 6.33 11 8 11ZM8 13C5.66 13 1 14.16 1 16.5L1 19L15 19L15 16.5C15 14.16 10.33 13 8 13ZM16 13C15.71 13 15.37 13.02 15.02 13.04C16.18 13.89 17 15.02 17 16.5L17 19L23 19L23 16.5C23 14.16 18.33 13 16 13Z" fill="#FFFFFF" fill-opacity="1.000000" fill-rule="nonzero"/>
</svg>
